<svg version="1.1" viewBox="0.0 0.0 1654.1889763779527 326.2283464566929" fill="none" stroke="none" stroke-linecap="square" stroke-miterlimit="10" xmlns:xlink="http://www.w3.org/1999/xlink" xmlns="http://www.w3.org/2000/svg"><clipPath id="p.0"><path d="m0 0l1654.189 0l0 326.22833l-1654.189 0l0 -326.22833z" clip-rule="nonzero"/></clipPath><g clip-path="url(#p.0)"><path fill="#000000" fill-opacity="0.0" d="m0 0l1654.189 0l0 326.22833l-1654.189 0z" fill-rule="evenodd"/><path fill="#cfe2f3" d="m64.344345 15.684804l0 0c16.75988 -13.941929 48.727455 5.376807 71.401566 43.14961q24.72319 41.18634 55.648895 77.21304q-26.665741 1.2228851 -44.94023 16.424744l0 0c-16.759888 13.94194 -48.727455 -5.3768005 -71.40157 -43.149597l0 0c-22.674114 -37.772797 -27.468544 -79.69587 -10.708656 -93.637794z" fill-rule="evenodd"/><path stroke="#000000" stroke-width="3.0" stroke-linejoin="round" stroke-linecap="butt" d="m64.344345 15.684804l0 0c16.75988 -13.941929 48.727455 5.376807 71.401566 43.14961q24.72319 41.18634 55.648895 77.21304q-26.665741 1.2228851 -44.94023 16.424744l0 0c-16.759888 13.94194 -48.727455 -5.3768005 -71.40157 -43.149597l0 0c-22.674114 -37.772797 -27.468544 -79.69587 -10.708656 -93.637794z" fill-rule="evenodd"/><path fill="#cfe2f3" d="m16.39029 94.37494l0 0c9.688902 -21.299927 48.347527 -19.135384 86.34646 4.8346405q41.432915 26.136215 86.4515 44.389725q-24.627167 14.353973 -35.191666 37.57878l0 0c-9.688889 21.299927 -48.34752 19.135376 -86.34645 -4.8346405l0 0c-37.99893 -23.970032 -60.948742 -60.66858 -51.259842 -81.968506z" fill-rule="evenodd"/><path stroke="#000000" stroke-width="3.0" stroke-linejoin="round" stroke-linecap="butt" d="m16.39029 94.37494l0 0c9.688902 -21.299927 48.347527 -19.135384 86.34646 4.8346405q41.432915 26.136215 86.4515 44.389725q-24.627167 14.353973 -35.191666 37.57878l0 0c-9.688889 21.299927 -48.34752 19.135376 -86.34645 -4.8346405l0 0c-37.99893 -23.970032 -60.948742 -60.66858 -51.259842 -81.968506z" fill-rule="evenodd"/><path fill="#4a3700" d="m185.30713 88.35958l0 0c22.28273 -24.430992 52.445343 -33.21608 67.37007 -19.622047l0 0c7.167099 6.528084 9.789902 17.449387 7.291397 30.361336c-2.4985352 12.911957 -9.913681 26.756882 -20.614227 38.48905l0 0c-22.28273 24.431 -52.445343 33.21608 -67.37009 19.622055l0 0c-14.924728 -13.59404 -8.959885 -44.419403 13.322845 -68.850395z" fill-rule="evenodd"/><path stroke="#4a3700" stroke-width="4.0" stroke-linejoin="round" stroke-linecap="butt" d="m185.30713 88.35958l0 0c22.28273 -24.430992 52.445343 -33.21608 67.37007 -19.622047l0 0c7.167099 6.528084 9.789902 17.449387 7.291397 30.361336c-2.4985352 12.911957 -9.913681 26.756882 -20.614227 38.48905l0 0c-22.28273 24.431 -52.445343 33.21608 -67.37009 19.622055l0 0c-14.924728 -13.59404 -8.959885 -44.419403 13.322845 -68.850395z" fill-rule="evenodd"/><path fill="#000000" d="m182.00182 30.26909l0 0c4.563095 4.8264637 8.28978 13.050417 9.53862 21.04957c1.2488403 7.999153 -0.20939636 14.30521 -3.7324219 16.140636l-1.78479 -4.7545586l0 0c1.6003113 -0.8337288 1.9769135 -4.544529 0.98931885 -9.747921c-0.98760986 -5.203388 -3.1910858 -11.117832 -5.78833 -15.536671z" fill-rule="evenodd"/><path stroke="#000000" stroke-width="1.0" stroke-linejoin="round" stroke-linecap="butt" d="m182.00182 30.26909l0 0c4.563095 4.8264637 8.28978 13.050417 9.53862 21.04957c1.2488403 7.999153 -0.20939636 14.30521 -3.7324219 16.140636l-1.78479 -4.7545586l0 0c1.6003113 -0.8337288 1.9769135 -4.544529 0.98931885 -9.747921c-0.98760986 -5.203388 -3.1910858 -11.117832 -5.78833 -15.536671z" fill-rule="evenodd"/><path fill="#000000" d="m219.00708 24.830217l0 0c-4.56308 4.8264637 -8.28978 13.050417 -9.53862 21.04957c-1.2488403 7.999153 0.20939636 14.30521 3.7324219 16.140633l1.78479 -4.7545547l0 0c-1.6003113 -0.8337288 -1.9769135 -4.544533 -0.98931885 -9.747921c0.98760986 -5.203392 3.1910858 -11.117832 5.7883453 -15.536671z" fill-rule="evenodd"/><path stroke="#000000" stroke-width="1.0" stroke-linejoin="round" stroke-linecap="butt" d="m219.00708 24.830217l0 0c-4.56308 4.8264637 -8.28978 13.050417 -9.53862 21.04957c-1.2488403 7.999153 0.20939636 14.30521 3.7324219 16.140633l1.78479 -4.7545547l0 0c-1.6003113 -0.8337288 -1.9769135 -4.544533 -0.98931885 -9.747921c0.98760986 -5.203392 3.1910858 -11.117832 5.7883453 -15.536671z" fill-rule="evenodd"/><path fill="#000000" fill-opacity="0.0" d="m81.6 -54.08l1779.874 0l0 413.7008l-1779.874 0z" fill-rule="evenodd"/><path fill="#4a3700" d="m158.92813 293.92q-10.65625 -6.671875 -15.828125 -11.671875q-5.171875 -5.0 -5.171875 -9.328125q0 -4.328125 5.671875 -7.671875q1.671875 -1.0 5.828125 1.84375q4.171875 2.828125 8.171875 6.828125q8.671875 8.0 22.671875 8.0q6.0 0 16.0 -2.328125q13.65625 -4.0 24.15625 -11.671875q10.5 -7.671875 20.171875 -19.67189q6.0 -8.0 9.0 -17.65625q3.0 -9.671875 3.0 -18.34375q0 -10.65625 -4.0 -15.65625q-13.328125 -18.0 -38.0 -18.0q-10.671875 0 -20.0 2.65625l-19.328125 4.0q-0.671875 0.34375 -3.015625 0.84375q-2.328125 0.5 -7.328125 14.5q-5.0 14.0 -13.0 36.65625q-7.0 20.343765 -11.0 28.51564q-4.0 8.15625 -7.328125 8.15625q-3.3281326 0 -8.000008 -7.328125q-3.671875 -6.0 -3.671875 -10.34375q0 -4.3281403 3.0 -9.32814q1.671875 -3.0 2.828125 -6.0q1.171875 -3.0 2.515625 -8.328125q4.3281326 -13.0 25.156258 -64.671875q20.84375 -51.671875 32.5 -78.0q8.34375 -19.0 5.0 -20.0q0 -1.0 -1.0 -3.0q-1.0 -2.0 -0.65625 -3.0q0 -2.0 9.328125 -6.0q9.328125 -4.0 13.671875 -3.328125l2.0 0q4.328125 0 4.328125 -1.671875q0.671875 0 6.171875 -0.65625q5.5 -0.671875 11.828125 0q22.328125 2.0 34.65625 13.0q12.34375 11.0 12.0 29.328125q-0.328125 8.328125 -11.671875 24.5q-11.328125 16.15625 -22.65625 26.5q-5.328125 4.65625 -12.171875 9.828125q-6.828125 5.171875 -8.828125 6.5l8.34375 3.0q16.328125 6.0 25.828125 14.84375q9.5 8.828125 13.15625 23.484375q0.671875 3.34375 0.671875 6.0q0 7.34375 -2.5 16.671875q-2.5 9.328125 -5.5 16.328125q-2.0 2.0 -3.34375 4.34375q-1.328125 2.328125 -1.65625 3.0q-0.328125 1.328125 -6.0 10.17189q-5.65625 8.828125 -10.0 14.15625q-16.65625 14.328125 -29.65625 19.0q-14.0 6.328125 -31.671875 6.328125q-16.328125 0 -24.671875 -5.328125zm16.34375 -128.32814q3.65625 -0.671875 14.828125 -2.828125q11.171875 -2.171875 15.5 -3.84375q0.671875 -0.328125 4.171875 -2.15625q3.5 -1.84375 7.15625 -5.515625q8.0 -7.328125 19.671875 -21.828125q11.671875 -14.5 17.0 -24.5q8.328125 -13.65625 8.328125 -20.0q0 -4.328125 -3.671875 -8.0q-4.328125 -5.328125 -20.65625 -5.328125q-10.671875 0 -18.328125 2.0q-4.671875 1.328125 -6.84375 3.171875q-2.15625 1.828125 -2.15625 5.5q0 5.0 -5.34375 10.328125q-0.328125 2.0 -1.5 3.84375q-1.15625 1.828125 -1.5 2.15625q0 1.0 -4.0 10.0q-5.328125 10.328125 -10.0 23.328125q-12.65625 30.0 -12.65625 33.671875zm201.65869 108.656265q-8.0 -7.65625 -12.0 -22.656265q-0.671875 -2.0 -0.671875 -7.0q0 -5.0 0 -7.0q-2.0 5.0 -7.328125 9.0q-7.671875 7.65625 -15.328125 11.32814q-11.671875 7.671875 -19.0 7.671875q-6.671875 0 -12.671875 -7.34375q-4.328125 -3.6562653 -6.5 -7.3281403q-2.171875 -3.671875 -2.171875 -9.0q0 -3.671875 1.0 -8.0q0.671875 -12.328125 3.5 -23.65625q2.84375 -11.34375 10.84375 -29.015625q10.65625 -21.0 15.328125 -28.0q1.671875 -0.65625 4.328125 -0.65625q3.34375 0 5.5 2.0q2.171875 2.0 2.5 5.328125q1.0 1.328125 1.0 3.671875q0 8.328125 -10.0 27.328125q-13.0 31.328125 -13.0 43.328125q0 7.0 4.0 8.34375q1.671875 1.0 3.671875 1.0q8.328125 0 20.0 -11.328125q11.671875 -11.34375 22.328125 -36.34375q4.671875 -11.328125 5.671875 -23.328125q-0.328125 -1.0 -0.328125 -3.0q0 -6.0 6.0 -9.671875q1.328125 -2.0 3.65625 -3.15625q2.34375 -1.171875 3.0 0.15625l5.34375 -0.328125q1.0 -0.34375 2.0 1.828125q1.0 2.171875 2.0 2.828125q2.328125 2.0 2.328125 7.34375q0 11.0 -9.671875 33.65625q-6.328125 13.34375 -8.5 20.515625q-2.15625 7.15625 -2.5 13.828125q0 12.65625 9.671875 21.000015q3.328125 2.328125 4.0 5.0q0.671875 2.65625 0.328125 7.328125q-0.65625 3.0 -3.828125 4.84375q-3.171875 1.828125 -6.828125 1.828125q-4.34375 0 -7.671875 -2.34375zm193.98758 -13.328125q-4.65625 -1.671875 -8.828125 -8.17189q-4.171875 -6.5 -4.171875 -21.15625l0.34375 -15.34375q0 -4.0 -0.5 -5.65625q-0.5 -1.671875 -1.84375 -1.671875q-4.328125 0 -18.5 11.34375q-14.15625 11.328125 -28.484344 26.984375q-1.671875 1.671875 -4.515625 4.84375q-2.828125 3.15625 -5.15625 4.6562653q-2.328125 1.5 -4.328125 1.5q-3.0 0 -5.671875 -2.3281403l-3.671875 -3.0q-2.328125 -2.0 -2.328125 -4.671875l0.671875 -3.0l7.65625 -22.0q7.34375 -17.0 8.671875 -21.5q1.328125 -4.5 -0.328125 -4.15625q-3.0 0.328125 -8.34375 3.171875q-5.328125 2.828125 -6.65625 5.484375q-0.671875 0 -4.34375 3.5q-3.65625 3.5 -6.328125 5.171875q-3.0 4.328125 -14.671875 15.671875l-8.0 7.65625q-5.0 4.0 -14.0 16.34375q-4.65625 6.0000153 -5.328125 6.0000153q-10.328125 0 -13.0 -10.000015q-1.328125 -2.34375 -1.328125 -6.34375q0 -5.328125 4.0 -22.0q3.0 -11.328125 3.328125 -14.0l1.671875 -6.65625q0.65625 -4.34375 2.984375 -10.34375q2.34375 -6.0 8.015625 -19.0q3.328125 -9.328125 3.328125 -14.0q0 -4.328125 3.0 -6.828125q3.0 -2.5 6.671875 -2.5q4.65625 0 7.984375 3.671875q3.34375 3.65625 3.34375 9.65625q0 5.671875 -2.671875 11.671875l-3.65625 9.0q-2.671875 5.328125 -6.84375 17.171875q-4.15625 11.828125 -4.15625 13.15625q0.328125 1.0 2.328125 -0.5q2.0 -1.5 4.671875 -3.828125q3.0 -3.0 7.0 -6.0q10.0 -9.328125 23.828125 -18.0q13.828125 -8.671875 21.171875 -11.0q4.328125 0 6.484375 1.171875q2.1718445 1.15625 4.8437195 4.0q2.671875 2.828125 4.0 4.15625q3.0 3.0 3.0 8.671875q0 1.671875 -0.671875 4.328125q-1.328125 4.671875 -3.5 11.34375q-2.15625 6.65625 -3.15625 9.65625q2.328125 -2.0 8.328125 -7.0q6.0 -5.0 11.0 -9.328125q16.65625 -13.0 26.328125 -13.0q7.0 0 12.0 7.328125q3.0 3.0 3.65625 6.171875q0.671875 3.171875 0.671875 8.5q0 5.328125 0 8.328125q0.34375 2.34375 0.34375 8.0q0.328125 2.671875 0.828125 10.34375q0.5 7.65625 1.5 8.65625q1.671875 2.0 11.328125 3.671875q6.0 1.0 6.0 5.328125q0 3.0000153 -4.328125 6.0000153q-4.328125 2.671875 -10.671875 2.671875q-6.0 0 -11.0 -2.0zm62.33557 4.0q-1.328125 0.328125 -4.0 0.328125q-8.328125 0 -16.0 -8.328125q-1.65625 -2.3281403 -1.65625 -3.6718903q0 -1.328125 1.0 -2.328125q1.0 -1.0 2.65625 -1.0q1.34375 0 1.84375 -3.5q0.5 -3.5 1.15625 -9.828125q0.34375 -4.0 1.671875 -7.828125q1.328125 -3.84375 1.328125 -5.171875q0.34375 -1.0 0.84375 -5.5q0.5 -4.5 1.828125 -7.84375q2.0 -8.65625 6.5 -24.484375q4.5 -15.84375 7.5 -23.84375q0.671875 -6.0 7.0 -18.328125q6.328125 -17.671875 19.65625 -47.671875q13.34375 -30.0 16.34375 -34.0q3.0 -2.328125 5.671875 -2.328125q4.328125 0 8.328125 4.0q2.671875 3.671875 2.671875 7.0q0 4.328125 -4.34375 9.671875q-1.328125 2.328125 -3.0 5.5q-1.65625 3.15625 -3.328125 6.15625q-2.0 6.0 -8.671875 20.0q-9.328125 19.328125 -15.328125 36.328125q-2.328125 5.34375 -5.0 12.34375q-2.328125 7.0 -3.328125 8.0q-1.34375 6.0 -4.0 12.0q-4.34375 13.328125 -5.34375 19.0l12.0 -11.671875q13.671875 -14.671875 26.671875 -23.5q13.0 -8.828125 21.671875 -8.828125q7.0 0 15.328125 5.328125q8.328125 5.328125 11.0 11.671875q2.328125 5.65625 2.328125 10.65625q0 14.34375 -13.65625 31.671875q-3.34375 6.0 -8.515625 11.84375q-5.15625 5.828125 -9.15625 8.828125q-9.0 8.328125 -11.671875 10.328125q-3.65625 2.671875 -6.828125 4.5q-3.171875 1.828125 -7.5 3.171875q-6.328125 4.3281403 -17.171875 6.8281403q-10.828125 2.5 -26.5 4.5zm8.671875 -17.000015q4.0 0 9.65625 -1.328125q5.671875 -1.34375 10.34375 -4.671875q14.328125 -7.328125 25.65625 -18.65625q11.34375 -11.34375 17.5 -23.0q6.171875 -11.671875 6.171875 -19.671875q0 -6.671875 -5.65625 -6.671875q-4.671875 0 -13.34375 5.671875q-8.65625 5.65625 -19.328125 16.0q-7.671875 7.0 -20.0 21.328125q0 0 -6.0 7.0q-0.671875 1.0 -3.0 4.84375q-2.328125 3.828125 -2.671875 6.828125q-1.0 5.0 -1.0 8.0q0 4.328125 1.671875 4.328125zm110.669556 30.000015q-4.34375 -1.328125 -6.34375 -5.0q-2.0 -3.671875 -2.328125 -10.328125q0 -4.671875 2.0 -14.17189q2.0 -9.5 2.328125 -11.828125l0.34375 -2.671875q0.328125 -1.671875 1.15625 -6.0q0.84375 -4.328125 0.84375 -2.0l2.328125 -9.0q2.328125 -9.0 4.65625 -16.65625q2.34375 -7.671875 3.34375 -11.015625l4.0 -11.328125q11.328125 -32.671875 18.671875 -42.328125q0.328125 -1.34375 0.984375 -2.5q0.671875 -1.171875 1.015625 -2.5q0.328125 -4.0 2.328125 -7.0q3.0 -5.0 5.0 -9.0l1.328125 -3.671875q5.34375 -11.328125 9.34375 -17.328125q1.328125 -3.0 3.828125 -7.0q2.5 -4.0 4.171875 -5.671875l-0.34375 -0.328125q1.671875 -2.671875 3.828125 -3.328125q2.171875 -0.671875 5.84375 -0.671875q4.328125 0 5.15625 1.171875q0.84375 1.15625 0.84375 6.15625l0 3.0q0 3.34375 -0.5 5.015625q-0.5 1.65625 -2.5 3.984375l0.328125 0q0 0 -0.671875 1.671875q-0.65625 1.671875 -1.328125 3.0q-2.328125 6.0 -3.328125 6.671875q-2.0 2.328125 -13.5 26.15625q-11.5 23.828125 -15.5 33.828125l-1.671875 5.0l-0.65625 2.0q-3.671875 8.0 -4.0 8.671875l-5.671875 19.328125l-1.671875 7.0l-3.0 7.34375l-2.0 6.328125q-0.65625 1.328125 -1.0 3.328125q-0.328125 2.0 -1.328125 3.0l-0.328125 1.671875q-4.0 18.328125 -5.34375 35.32814l-0.328125 1.34375q-0.671875 5.65625 -2.34375 8.328125q-1.65625 2.671875 -4.65625 2.671875q-0.671875 0 -3.328125 -0.671875zm87.98871 -2.0q-14.328125 0 -23.671875 -10.65625q-9.328125 -10.67189 -9.328125 -26.67189q0 -16.0 7.171875 -35.171875q7.171875 -19.171875 18.5 -34.5q11.328125 -15.328125 23.0 -20.671875q6.671875 -3.65625 15.0 -3.65625q6.328125 0 14.328125 3.65625q5.671875 2.34375 8.671875 5.671875q3.0 3.328125 5.328125 10.328125q1.0 6.0 1.0 8.34375q0 2.0 -1.65625 8.65625q-4.0 12.34375 -10.5 20.84375q-6.5 8.5 -16.84375 14.5q-5.328125 3.328125 -13.328125 3.328125q-7.0 0 -13.171875 -2.5q-6.15625 -2.5 -9.5 -7.5l-2.328125 -2.671875l-1.0 2.671875q-7.0 18.0 -7.0 30.671875q0 8.65625 3.328125 14.0q2.34375 3.6562653 11.34375 3.6562653q6.65625 0 9.65625 -1.328125q5.0 -1.6718903 8.828125 -4.1718903q3.84375 -2.5 7.515625 -5.15625l1.328125 -0.671875l-0.328125 0q4.0 -2.0 6.65625 -3.65625q2.671875 -1.671875 3.671875 -2.34375q0.671875 0 1.328125 -0.328125q0.671875 -0.34375 1.34375 -1.34375q3.0 -1.328125 7.0 1.015625q4.0 2.328125 4.0 5.984375q-0.671875 2.671875 -6.015625 8.671875q-5.328125 6.0000153 -7.984375 6.3281403q-0.34375 0 -2.34375 1.0q-2.0 1.0 -2.65625 1.671875l0.328125 0q-3.0 4.0 -6.0 4.0l-2.671875 0q-1.328125 2.671875 -8.828125 5.34375q-7.5 2.65625 -14.171875 2.65625zm15.0 -73.32814q10.0 0 18.34375 -11.34375q8.0 -10.65625 8.0 -21.328125q0 -5.671875 -2.34375 -8.0q-2.0 -1.0 -3.65625 -1.0q-1.671875 0 -5.671875 1.0q-4.328125 1.0 -13.328125 9.171875q-9.0 8.15625 -13.34375 14.5l-4.328125 7.0q2.671875 -1.0 5.171875 -1.171875q2.5 -0.171875 2.828125 0.5q0 4.671875 2.328125 7.671875q2.34375 3.0 6.0 3.0zm98.331604 66.656265q-6.65625 -0.65625 -8.15625 -1.65625q-1.5 -1.0 -3.5 -5.34375q-2.671875 -2.65625 -3.171875 -4.328125q-0.5 -1.671875 -0.171875 -3.3281403q4.0 0 4.671875 -1.34375q0 -1.0 1.15625 -1.328125q1.171875 -0.328125 2.515625 0q9.0 0.671875 26.0 -9.328125q17.0 -10.0 34.0 -25.671875q9.65625 -12.328125 13.484375 -19.328125q3.843811 -7.0 3.843811 -11.34375q0 -2.65625 -1.000061 -5.0q-1.0 -2.328125 -7.0 -2.328125q-10.328125 0 -21.328125 7.328125q-14.34375 9.0 -23.015625 16.5q-8.65625 7.5 -15.984375 17.5q-3.34375 4.34375 -6.671875 10.84375q-3.328125 6.5 -4.328125 8.5q0 1.328125 -3.84375 3.328125q-3.828125 2.0 -6.5 2.0q-1.65625 -0.671875 -3.828125 -2.671875q-2.171875 -2.0 -2.5 -4.65625q-0.671875 -0.671875 -2.171875 -1.671875q-1.5 -1.0 -2.0 -2.0q-0.5 -1.0 -0.5 -2.328125q0 -2.0 1.828125 -8.828125q1.84375 -6.84375 2.84375 -10.171875q2.671875 -12.671875 6.828125 -26.328125q4.171875 -13.671875 5.84375 -15.015625q0.328125 -0.65625 1.484375 -3.65625q1.171875 -3.0 1.171875 -6.34375q0.671875 -3.0 2.171875 -6.828125q1.5 -3.828125 1.5 -4.5q1.671875 -1.328125 10.671875 -26.328125q0 -1.34375 7.328125 -17.671875q11.0 -25.0 13.328125 -32.0q3.0 -4.328125 5.34375 -9.0q3.65625 -6.65625 5.328125 -7.328125q2.671875 -0.671875 6.828125 1.0q4.171875 1.671875 6.5 5.0q1.671875 2.328125 1.671875 3.328125q0 1.671875 -1.84375 6.171875q-1.828125 4.5 -4.15625 9.171875q-2.328125 4.65625 -3.328125 7.0l-8.34375 17.328125q-9.0 19.0 -14.671875 33.828125q-5.65625 14.828125 -11.984375 33.828125l-6.0 16.34375l-1.671875 7.328125l8.328125 -8.0q4.0 -3.0 14.671875 -12.328125q2.328125 -2.0 4.15625 -3.5q1.84375 -1.5 2.84375 -2.5q4.0 -2.671875 11.65625 -6.0q7.671875 -3.34375 10.671875 -4.0q6.671875 -1.671875 14.671875 -1.671875q7.000061 0 11.656311 3.34375q4.671875 3.328125 9.015625 10.65625q3.0 6.0 3.0 13.0q0 10.328125 -5.34375 19.328125q-1.65625 1.34375 -3.328125 3.515625q-1.671875 2.15625 -1.671875 3.484375q-0.328125 2.0 -5.671875 9.0q-5.328186 7.0 -11.656311 14.0q-8.671875 9.0 -22.84375 18.0q-14.15625 9.000015 -23.484375 12.343765q-2.0 0.328125 -7.5 1.171875q-5.5 0.828125 -7.84375 1.484375zm131.34149 -2.328125q-10.671875 -4.328125 -15.015625 -11.156265q-4.328125 -6.84375 -4.328125 -19.171875q0 -6.0 1.0 -14.0l0.671875 -12.0q0 -3.0 -0.671875 -4.671875q-0.65625 -1.671875 -3.0 -3.671875q-0.65625 -0.65625 -3.328125 -3.328125q-2.671875 -2.671875 -2.328125 -4.328125l-0.34375 -1.671875q0 -2.328125 0.828125 -4.328125q0.84375 -2.0 1.84375 -2.0q1.0 0 2.65625 -0.5q1.671875 -0.5 3.015625 -0.171875q4.65625 0 4.65625 2.0q1.34375 2.671875 4.5 0.5q3.171875 -2.171875 6.171875 -8.5q4.671875 -7.328125 13.828125 -15.5q9.171875 -8.171875 15.171875 -11.5q2.328125 -1.328125 7.65625 -2.5q5.34375 -1.171875 9.34375 -1.171875q6.0 0 10.5 2.671875q4.5 2.671875 9.171875 7.671875q6.328125 4.65625 6.328125 14.65625q0 7.0 -3.328125 14.34375q-1.34375 5.0 -10.515625 12.671875q-9.15625 7.65625 -16.828125 10.65625q-9.328125 2.328125 -21.328125 2.328125q-8.0 0 -10.328125 -1.328125q-4.0 -2.328125 -5.671875 18.0q-0.328125 2.328125 -0.328125 6.328125q0 5.671875 1.65625 9.0q0.34375 0.34375 2.34375 2.515625q2.0 2.15625 5.0 3.65625q3.0 1.5 6.328125 1.5q3.0 0 4.671875 -0.671875q3.65625 -1.0 6.984375 -3.828125q3.34375 -2.828125 9.34375 -8.828125q5.328125 -5.34375 7.671875 -7.34375q1.65625 -3.0 6.65625 -3.0q1.34375 0 4.671875 0.671875q3.0 2.328125 3.0 5.0q0 2.671875 -3.328125 10.0q-1.671875 3.328125 -8.171875 9.171875q-6.5 5.8281403 -11.5 9.156265q-10.328125 5.671875 -20.671875 5.671875q-6.328125 0 -14.65625 -3.0zm19.65625 -67.67189q3.34375 -0.65625 9.671875 -1.65625q6.328125 -1.0 10.5 -4.5q4.171875 -3.5 9.828125 -12.171875q1.0 -2.671875 1.0 -5.328125q0 -5.0 -2.0 -7.0q-2.328125 -2.34375 -5.328125 -2.34375q-4.671875 0 -9.671875 4.0q-3.328125 1.0 -9.828125 7.34375q-6.5 6.328125 -11.171875 12.5q-4.65625 6.15625 -3.0 7.15625q-0.65625 1.0 3.34375 1.5q4.0 0.5 6.65625 0.5zm124.00342 64.000015q-8.328125 7.34375 -20.0 7.34375q-8.328125 0 -15.828125 -4.0q-7.5 -4.0 -12.5 -11.000015q-4.34375 -5.34375 -6.34375 -12.0q-2.0 -6.671875 -2.0 -16.34375q0 -3.328125 0.671875 -13.328125q1.0 -12.328125 8.15625 -25.65625q7.171875 -13.34375 17.84375 -23.84375q10.671875 -10.5 21.0 -14.5q5.328125 -3.328125 9.671875 -3.328125q2.328125 0 4.65625 0.328125q2.34375 0.328125 5.0 0.671875q7.34375 1.0 11.171875 2.828125q3.828125 1.828125 6.5 5.5q8.328125 8.328125 8.328125 19.328125q-1.328125 8.0 -10.328125 18.34375q-9.0 10.328125 -21.671875 16.65625q-6.0 2.0 -13.65625 2.0q-10.34375 0 -16.671875 -4.328125q-3.0 -1.0 -4.671875 -1.0q-3.0 0 -4.5 4.0q-1.5 4.0 -2.828125 14.671875q-0.328125 2.328125 -0.328125 6.65625q0 17.0 11.328125 18.671875q7.671875 1.671875 11.0 1.671875q4.0 0 9.0 -2.671875l6.328125 -3.671875q2.0 -1.0 3.671875 -2.65625q1.671875 -1.671875 3.0 -3.0q0.671875 -0.671875 2.0 -2.171875q1.328125 -1.5 2.5 -2.0q1.171875 -0.5 2.171875 -0.5q1.328125 0 2.984375 1.5q1.671875 1.5 2.671875 2.171875q3.0 0 1.328125 4.171875q-1.65625 4.15625 -7.15625 9.65625q-5.5 5.5000153 -12.5 9.82814zm-0.328125 -70.656265q5.65625 -2.34375 11.484375 -8.34375q5.84375 -6.0 5.84375 -10.0q0 -4.0 -3.0 -6.65625q-3.0 -2.671875 -8.328125 -2.671875q-4.0 0 -6.0 0.671875q-4.671875 1.328125 -11.015625 7.171875q-6.328125 5.828125 -11.0 11.828125q-4.65625 6.0 -3.65625 7.0q1.671875 3.0 13.0 3.0q7.671875 0 12.671875 -2.0zm76.65967 79.656265q-11.328125 0 -19.671875 -4.65625q-8.328125 -4.671875 -11.0 -12.67189q-2.328125 -6.0 -2.328125 -6.671875q0 -2.0 2.328125 -3.0q2.34375 0 5.5 2.0q3.171875 2.0 5.171875 2.671875q5.0 4.671875 13.671875 4.671875q6.65625 0 12.15625 -2.671875q5.5 -2.671875 6.171875 -6.328125q0 -1.671875 -3.328125 -11.671875q-8.34375 -12.0 -12.84375 -24.5q-4.5 -12.5 -4.5 -21.171875q0 -6.328125 3.671875 -12.984375q3.671875 -6.671875 10.0 -11.34375q8.328125 -8.671875 20.15625 -15.671875q11.84375 -7.0 21.515625 -9.65625q4.0 0 9.828125 1.0q5.828125 1.0 8.171875 2.328125q3.65625 1.328125 6.984375 7.328125q3.34375 6.0 3.34375 11.34375q0 5.328125 -5.671875 14.65625q-0.65625 2.34375 -2.65625 6.34375q-2.0 4.0 -2.0 5.0q-1.34375 3.328125 -4.34375 3.328125q-3.0 0 -5.828125 -2.828125q-2.828125 -2.84375 -4.5 -6.84375q-1.0 -4.0 -1.0 -7.0q0 -4.0 2.671875 -8.0q3.65625 -3.65625 3.65625 -5.0q0 -1.328125 -3.65625 -1.328125q-4.0 0 -15.34375 6.34375q-11.328125 6.328125 -18.0 13.328125q-6.0 5.65625 -7.328125 8.5q-1.328125 2.828125 -1.328125 8.5q0 5.0 2.15625 11.828125q2.171875 6.828125 4.5 9.171875q0.671875 1.328125 2.828125 5.671875q2.171875 4.328125 5.171875 8.328125q6.671875 15.0 6.671875 23.328125q0 9.67189 -7.5 14.000015q-7.5 4.328125 -23.5 4.328125zm104.664795 -14.65625q-6.328125 2.328125 -9.671875 2.328125q-4.65625 0 -10.0 -4.0000153q-4.65625 -4.671875 -4.65625 -9.328125q0 -7.34375 11.328125 -15.0q6.671875 -4.0 9.671875 -4.0q1.65625 0 8.0 2.328125q9.0 5.328125 9.0 12.328125q0 4.0 -3.5 8.0q-3.5 4.0 -10.171875 7.3437653zm84.32703 -128.67189q-2.328125 -2.328125 -4.0 -8.0q-1.65625 -5.671875 0 -5.671875q2.671875 -0.328125 6.171875 -5.828125q3.5 -5.5 3.171875 -9.15625q0 -1.34375 1.0 -2.5q1.0 -1.171875 2.328125 -1.5q2.671875 -1.671875 4.671875 -1.671875q5.65625 0 10.328125 8.0q2.0 4.328125 2.0 7.671875q0 2.984375 -1.671875 6.15625q-1.65625 3.171875 -6.0 8.171875q-5.65625 7.65625 -10.65625 7.65625q-3.34375 0 -7.34375 -3.328125zm-32.328125 135.32814q-4.671875 -4.65625 -4.671875 -13.32814q0 -4.671875 1.671875 -8.0q0 -1.671875 0.65625 -4.0q0.671875 -2.328125 0.671875 -3.0q-0.328125 -2.0 2.671875 -11.0q6.0 -13.328125 16.0 -47.0q0 -1.671875 1.328125 -2.828125q1.34375 -1.171875 4.0 -1.5q2.671875 -0.671875 3.671875 -0.671875q2.0 0 3.5 1.5q1.5 1.5 4.171875 5.5q2.0 2.0 2.0 6.0q0 6.328125 -4.34375 15.328125q-4.328125 9.671875 -5.65625 16.671875q-4.0 9.0 -6.34375 16.671875q-0.65625 2.0 -2.0 8.0q-1.328125 6.0 -3.65625 9.65625q-2.0 9.343765 -3.671875 13.01564q-1.671875 3.65625 -3.671875 3.65625q-2.328125 0 -6.328125 -4.671875zm93.66052 -2.0q-5.0 1.0 -7.328125 1.0q-2.0 0 -3.34375 -0.828125q-1.328125 -0.828125 -3.65625 -3.171875q-7.328125 -3.6562653 -11.5 -10.48439q-4.171875 -6.84375 -3.5 -12.171875q1.328125 -15.34375 8.828125 -33.671875q7.5 -18.328125 17.828125 -32.328125q10.34375 -14.0 20.015625 -17.34375q6.0 -2.328125 10.0 -2.328125q8.0 0 11.328125 6.671875q2.328125 4.65625 2.328125 7.0q0 4.0 -4.65625 5.328125q-1.0 0 -2.34375 1.0q-1.328125 1.0 -1.328125 2.0q0.328125 0.328125 3.0 0.328125q5.671875 0 14.0 -1.65625q8.328125 -1.671875 10.671875 -3.671875q2.0 -1.0 3.328125 -1.0l4.671875 0.671875q5.65625 1.65625 5.65625 4.0q0 1.328125 1.0 2.5q1.0 1.15625 2.34375 1.15625q2.0 0.34375 -0.5 2.671875q-2.5 2.328125 -9.5 7.671875q-1.671875 1.0 -4.84375 3.0q-3.15625 2.0 -3.65625 3.328125q-0.5 1.328125 0.15625 3.671875q1.34375 3.0 1.34375 7.328125q0 11.0 -9.5 24.34375q-9.5 13.328125 -23.671875 23.328125q-14.171875 10.000015 -27.171875 11.656265zm-5.65625 -14.656265q2.0 0 10.0 -4.0q4.328125 -4.34375 7.0 -5.34375q2.328125 0 6.328125 -3.5q4.0 -3.5 12.328125 -14.15625q6.34375 -7.34375 9.5 -12.34375q3.171875 -5.0 3.171875 -9.65625q0 -2.0 -0.328125 -3.0q-0.34375 -1.0 -2.171875 -1.828125q-1.828125 -0.84375 -3.5 -1.515625q-3.0 0 -5.5 -1.5q-2.5 -1.5 -7.171875 -5.15625l-5.328125 -6.671875l-5.671875 5.671875q-8.0 8.0 -16.328125 26.171875q-8.328125 18.15625 -9.328125 28.15625q-0.34375 4.671875 1.484375 6.5q1.84375 1.828125 5.515625 2.171875z" fill-rule="nonzero"/><path fill="#4a3700" d="m178.37524 291.6165l0 0c2.1134644 4.4791565 -0.29785156 10.9375305 -5.3858337 14.425201q-5.175873 3.547882 -9.878555 8.098633q-1.0108337 -5.3374023 -3.1608124 -9.893921l0 0c-2.1134644 -4.4791565 0.29785156 -10.9375305 5.3858337 -14.425201l0 0c5.087967 -3.4876404 10.925903 -2.6838684 13.039368 1.7952881z" fill-rule="evenodd"/><path fill="#4a3700" d="m168.81056 173.05513l0 0c-13.289612 -3.9660187 -16.384842 -32.880676 -6.913376 -64.58268c9.471466 -31.702019 27.922974 -54.18649 41.2126 -50.220474l0 0c-18.78009 33.43798 -31.659958 76.54827 -34.299225 114.803154z" fill-rule="evenodd"/><path fill="#ffd966" d="m146.56454 190.5302l0 0c26.518356 -28.797089 67.14412 -34.508102 90.74016 -12.75592l0 0c11.331207 10.4457855 17.139542 25.9572 16.147232 43.12195c-0.9923248 17.16475 -8.70401 34.576767 -21.438583 48.405624l0 0c-26.518356 28.797089 -67.144104 34.508087 -90.74014 12.75589l0 0c-23.596046 -21.752167 -21.227036 -62.73047 5.291336 -91.52754z" fill-rule="evenodd"/><path stroke="#4a3700" stroke-width="16.0" stroke-linejoin="round" stroke-linecap="butt" d="m146.56454 190.5302l0 0c26.518356 -28.797089 67.14412 -34.508102 90.74016 -12.75592l0 0c11.331207 10.4457855 17.139542 25.9572 16.147232 43.12195c-0.9923248 17.16475 -8.70401 34.576767 -21.438583 48.405624l0 0c-26.518356 28.797089 -67.144104 34.508087 -90.74014 12.75589l0 0c-23.596046 -21.752167 -21.227036 -62.73047 5.291336 -91.52754z" fill-rule="evenodd"/><path fill="#ffd966" d="m188.31215 83.77963l0 0c17.777481 -19.490875 44.287857 -24.271202 59.2126 -10.67717l0 0c7.167099 6.528084 10.649353 16.50698 9.680664 27.74144c-0.9687195 11.234467 -6.308975 22.80423 -14.846024 32.164078l0 0c-17.777481 19.49086 -44.287857 24.271194 -59.2126 10.677155l0 0c-14.924728 -13.594025 -12.612122 -40.414635 5.1653595 -59.905502z" fill-rule="evenodd"/><path stroke="#4a3700" stroke-width="4.0" stroke-linejoin="round" stroke-linecap="butt" d="m188.31215 83.77963l0 0c17.777481 -19.490875 44.287857 -24.271202 59.2126 -10.67717l0 0c7.167099 6.528084 10.649353 16.50698 9.680664 27.74144c-0.9687195 11.234467 -6.308975 22.80423 -14.846024 32.164078l0 0c-17.777481 19.49086 -44.287857 24.271194 -59.2126 10.677155l0 0c-14.924728 -13.594025 -12.612122 -40.414635 5.1653595 -59.905502z" fill-rule="evenodd"/><path fill="#000000" d="m174.18547 30.850822l0 0c0 -4.3139095 1.7344513 -7.8110237 3.8740082 -7.8110237l0 0c1.0274506 0 2.0128326 0.82294464 2.7393494 2.287794c0.7265167 1.4648514 1.1346741 3.4516163 1.1346741 5.5232296l0 0c0 4.3139076 -1.7344513 7.8110237 -3.8740234 7.8110237l0 0c-2.139557 0 -3.8740082 -3.497116 -3.8740082 -7.8110237z" fill-rule="evenodd"/><path stroke="#000000" stroke-width="1.0" stroke-linejoin="round" stroke-linecap="butt" d="m174.18547 30.850822l0 0c0 -4.3139095 1.7344513 -7.8110237 3.8740082 -7.8110237l0 0c1.0274506 0 2.0128326 0.82294464 2.7393494 2.287794c0.7265167 1.4648514 1.1346741 3.4516163 1.1346741 5.5232296l0 0c0 4.3139076 -1.7344513 7.8110237 -3.8740234 7.8110237l0 0c-2.139557 0 -3.8740082 -3.497116 -3.8740082 -7.8110237z" fill-rule="evenodd"/><path fill="#000000" d="m224.71317 24.44623l0 0c0 -4.3139095 -1.7344513 -7.8110237 -3.8740082 -7.8110237l0 0c-1.0274658 0 -2.0128326 0.82294464 -2.7393494 2.287796c-0.7265167 1.4648514 -1.1346741 3.4516144 -1.1346741 5.5232277l0 0c0 4.3139095 1.7344513 7.811022 3.8740234 7.811022l0 0c2.139557 0 3.8740082 -3.4971123 3.8740082 -7.811022z" fill-rule="evenodd"/><path stroke="#000000" stroke-width="1.0" stroke-linejoin="round" stroke-linecap="butt" d="m224.71317 24.44623l0 0c0 -4.3139095 -1.7344513 -7.8110237 -3.8740082 -7.8110237l0 0c-1.0274658 0 -2.0128326 0.82294464 -2.7393494 2.287796c-0.7265167 1.4648514 -1.1346741 3.4516144 -1.1346741 5.5232277l0 0c0 4.3139095 1.7344513 7.811022 3.8740234 7.811022l0 0c2.139557 0 3.8740082 -3.4971123 3.8740082 -7.811022z" fill-rule="evenodd"/><path fill="#4a3700" d="m125.38307 267.21783l0 0c-11.480568 -4.2269287 -11.247894 -33.67743 0.51968384 -65.779526c11.767578 -32.10208 30.613922 -54.69937 42.094482 -50.472427l0 0c-21.574478 31.601212 -38.644684 78.168915 -42.614166 116.25195z" fill-rule="evenodd"/><path fill="#ffffff" d="m243.08444 67.304695l0 0c0 -7.523247 4.9565887 -13.622047 11.070862 -13.622047l0 0c2.9361877 0 5.7521057 1.4351768 7.8282776 3.9898071c2.0762024 2.5546303 3.2425842 6.019451 3.2425842 9.63224l0 0c0 7.523247 -4.956604 13.622047 -11.070862 13.622047l0 0c-6.114273 0 -11.070862 -6.0988007 -11.070862 -13.622047z" fill-rule="evenodd"/><path stroke="#000000" stroke-width="3.0" stroke-linejoin="round" stroke-linecap="butt" d="m243.08444 67.304695l0 0c0 -7.523247 4.9565887 -13.622047 11.070862 -13.622047l0 0c2.9361877 0 5.7521057 1.4351768 7.8282776 3.9898071c2.0762024 2.5546303 3.2425842 6.019451 3.2425842 9.63224l0 0c0 7.523247 -4.956604 13.622047 -11.070862 13.622047l0 0c-6.114273 0 -11.070862 -6.0988007 -11.070862 -13.622047z" fill-rule="evenodd"/><path fill="#000000" d="m254.68622 64.3035l0 0c0 -3.122364 1.8966064 -5.6535416 4.236206 -5.6535416l0 0c1.1235352 0 2.2010193 0.5956383 2.9954834 1.6558838c0.7944336 1.0602455 1.2407532 2.4982452 1.2407532 3.9976578l0 0c0 3.1223679 -1.896637 5.6535416 -4.2362366 5.6535416l0 0c-2.3395996 0 -4.236206 -2.5311737 -4.236206 -5.6535416z" fill-rule="evenodd"/><path fill="#ffffff" d="m213.18582 69.430695l0 0c0 -7.523247 4.956604 -13.622047 11.070862 -13.622047l0 0c2.9361877 0 5.7521057 1.4351768 7.828293 3.9898071c2.0761871 2.5546303 3.2425842 6.0194473 3.2425842 9.63224l0 0c0 7.523247 -4.956604 13.622047 -11.070877 13.622047l0 0c-6.114258 0 -11.070862 -6.0988007 -11.070862 -13.622047z" fill-rule="evenodd"/><path stroke="#000000" stroke-width="3.0" stroke-linejoin="round" stroke-linecap="butt" d="m213.18582 69.430695l0 0c0 -7.523247 4.956604 -13.622047 11.070862 -13.622047l0 0c2.9361877 0 5.7521057 1.4351768 7.828293 3.9898071c2.0761871 2.5546303 3.2425842 6.0194473 3.2425842 9.63224l0 0c0 7.523247 -4.956604 13.622047 -11.070877 13.622047l0 0c-6.114258 0 -11.070862 -6.0988007 -11.070862 -13.622047z" fill-rule="evenodd"/><path fill="#000000" d="m225.54613 67.30351l0 0c0 -3.1223679 1.8966217 -5.6535416 4.2362213 -5.6535416l0 0c1.1235199 0 2.2010193 0.5956383 2.995453 1.6558838c0.79444885 1.0602417 1.2407684 2.4982452 1.2407684 3.9976578l0 0c0 3.1223679 -1.8966217 5.6535416 -4.2362213 5.6535416l0 0c-2.3395996 0 -4.2362213 -2.5311737 -4.2362213 -5.6535416z" fill-rule="evenodd"/><path fill="#cfe2f3" d="m252.38045 89.23083l0 0c0 10.036797 -10.1176605 18.173225 -22.59842 18.173225c-12.480774 0 -22.598434 -8.136429 -22.598434 -18.173225l0 0c3.0096283 8.0127945 12.189896 13.494888 22.598434 13.494888c10.408524 0 19.58879 -5.482094 22.59842 -13.494888z" fill-rule="evenodd"/><path stroke="#000000" stroke-width="3.0" stroke-linejoin="round" stroke-linecap="butt" d="m252.38045 89.23083l0 0c0 10.036797 -10.1176605 18.173225 -22.59842 18.173225c-12.480774 0 -22.598434 -8.136429 -22.598434 -18.173225l0 0c3.0096283 8.0127945 12.189896 13.494888 22.598434 13.494888c10.408524 0 19.58879 -5.482094 22.59842 -13.494888z" fill-rule="evenodd"/><path fill="#4a3700" d="m254.68504 212.2336l0 0c0 29.310226 -28.005127 53.070877 -62.551178 53.070877c-34.546066 0 -62.551193 -23.76065 -62.551193 -53.070877l0 0c14.139252 17.503082 37.541077 27.965698 62.551193 27.965698c25.010101 0 48.411926 -10.462616 62.551178 -27.965698z" fill-rule="evenodd"/><path fill="#4a3700" d="m258.38583 184.5328l0 0c0 20.873749 -25.206024 37.795273 -56.299225 37.795273c-31.093185 0 -56.29921 -16.921524 -56.29921 -37.795273l0 0c35.802536 10.820038 76.7959 10.820038 112.598434 0z" fill-rule="evenodd"/></g></svg>